<svg xmlns="http://www.w3.org/2000/svg" width="144" height="144">
    <!-- Down -->
    <g transform="translate(0, 0)">
      <circle cx="24" cy="40" r="10" fill="#000" opacity="0.2"/>
      <rect x="18" y="30" width="4" height="14" fill="#2C3E50"/>
      <rect x="26" y="30" width="4" height="14" fill="#2C3E50"/>
      <rect x="14" y="16" width="20" height="18" rx="4" fill="#2980B9"/>
      <circle cx="24" cy="12" r="10" fill="#F5CBA7"/>
      <rect x="20" y="10" width="2" height="3" fill="#2C3E50"/>
      <rect x="26" y="10" width="2" height="3" fill="#2C3E50"/>
    </g>
    <g transform="translate(48, 0)">
      <circle cx="24" cy="40" r="10" fill="#000" opacity="0.2"/>
      <rect x="18" y="28" width="4" height="12" fill="#2C3E50"/>
      <rect x="26" y="32" width="4" height="14" fill="#2C3E50"/>
      <rect x="14" y="15" width="20" height="18" rx="4" fill="#2980B9"/>
      <circle cx="24" cy="11" r="10" fill="#F5CBA7"/>
      <rect x="20" y="9" width="2" height="3" fill="#2C3E50"/>
      <rect x="26" y="9" width="2" height="3" fill="#2C3E50"/>
    </g>
    <g transform="translate(96, 0)">
      <circle cx="24" cy="40" r="10" fill="#000" opacity="0.2"/>
      <rect x="18" y="32" width="4" height="14" fill="#2C3E50"/>
      <rect x="26" y="28" width="4" height="12" fill="#2C3E50"/>
      <rect x="14" y="15" width="20" height="18" rx="4" fill="#2980B9"/>
      <circle cx="24" cy="11" r="10" fill="#F5CBA7"/>
      <rect x="20" y="9" width="2" height="3" fill="#2C3E50"/>
      <rect x="26" y="9" width="2" height="3" fill="#2C3E50"/>
    </g>
    
    <!-- Up -->
    <g transform="translate(0, 48)">
      <circle cx="24" cy="40" r="10" fill="#000" opacity="0.2"/>
      <rect x="18" y="30" width="4" height="14" fill="#2C3E50"/>
      <rect x="26" y="30" width="4" height="14" fill="#2C3E50"/>
      <rect x="14" y="16" width="20" height="18" rx="4" fill="#2980B9"/>
      <circle cx="24" cy="12" r="10" fill="#2C3E50"/>
    </g>
    <g transform="translate(48, 48)">
      <circle cx="24" cy="40" r="10" fill="#000" opacity="0.2"/>
      <rect x="18" y="28" width="4" height="12" fill="#2C3E50"/>
      <rect x="26" y="32" width="4" height="14" fill="#2C3E50"/>
      <rect x="14" y="15" width="20" height="18" rx="4" fill="#2980B9"/>
      <circle cx="24" cy="11" r="10" fill="#2C3E50"/>
    </g>
    <g transform="translate(96, 48)">
      <circle cx="24" cy="40" r="10" fill="#000" opacity="0.2"/>
      <rect x="18" y="32" width="4" height="14" fill="#2C3E50"/>
      <rect x="26" y="28" width="4" height="12" fill="#2C3E50"/>
      <rect x="14" y="15" width="20" height="18" rx="4" fill="#2980B9"/>
      <circle cx="24" cy="11" r="10" fill="#2C3E50"/>
    </g>

    <!-- Right -->
    <g transform="translate(0, 96)">
      <circle cx="24" cy="40" r="10" fill="#000" opacity="0.2"/>
      <rect x="22" y="30" width="4" height="14" fill="#2C3E50"/>
      <rect x="18" y="16" width="14" height="18" rx="4" fill="#2980B9"/>
      <circle cx="24" cy="12" r="10" fill="#F5CBA7"/>
      <rect x="26" y="10" width="2" height="3" fill="#2C3E50"/>
    </g>
    <g transform="translate(48, 96)">
      <circle cx="24" cy="40" r="10" fill="#000" opacity="0.2"/>
      <rect x="18" y="30" width="4" height="13" fill="#34495E"/>
      <rect x="26" y="30" width="4" height="13" fill="#2C3E50"/>
      <rect x="18" y="15" width="14" height="18" rx="4" fill="#2980B9"/>
      <circle cx="24" cy="11" r="10" fill="#F5CBA7"/>
      <rect x="26" y="9" width="2" height="3" fill="#2C3E50"/>
    </g>
    <g transform="translate(96, 96)">
      <circle cx="24" cy="40" r="10" fill="#000" opacity="0.2"/>
      <rect x="26" y="30" width="4" height="13" fill="#34495E"/>
      <rect x="18" y="30" width="4" height="13" fill="#2C3E50"/>
      <rect x="18" y="15" width="14" height="18" rx="4" fill="#2980B9"/>
      <circle cx="24" cy="11" r="10" fill="#F5CBA7"/>
      <rect x="26" y="9" width="2" height="3" fill="#2C3E50"/>
    </g>
  </svg>